<svg version="1.0" xmlns="http://www.w3.org/2000/svg" width="330.667" height="330.667" viewBox="0 0 248 248"><path d="M37.3 34c-5.2 1.2-12.2 5.9-15.1 10.2l-2.7 4.2-.2 75c-.3 74.6-.3 75.2 1.8 79.1 3.4 6.4 8.6 10.5 15.9 12.3 1.9.5 42 .8 89 .8 71.3-.2 86-.4 88.5-1.6 5.4-2.5 10.3-6.9 12.4-11.2 2-4.1 2.1-5.3 2.1-77.1 0-53.6-.3-73.9-1.2-76.9-1.9-6.4-8.2-12.1-16.3-14.6-3.5-1-169.3-1.2-174.2-.2zm33.5 23.2L71 78l-6.7.1H23.2c-1-.1-1.2-3.3-1-14.4.3-13.4.5-14.6 2.8-18 2.5-3.6 8-7.3 12.7-8.6 1.4-.4 9.3-.6 17.7-.6h15.1l.3 20.7zm103 22.5.2 43.3H74V36.4l49.8.1h49.7l.3 43.2zM214 38.4c4.5 2.2 7.2 4.4 9.6 8.1 1.6 2.5 1.9 5 2.1 17.2l.2 14.3-4.2.1c-4.6 0-37.5 0-41.9-.1H177V57.7c0-11.2.2-20.6.6-20.9.3-.3 7.8-.5 16.7-.3 12.9.1 16.9.5 19.7 1.9zM71 102.1V123H22.1l.1-20.2c0-11.2.2-20.6.4-20.9.2-.4 11.2-.7 24.4-.7h24v20.9zm154.8.1.3 20.8H177V81.3l24.3.1 24.2.1.3 20.7zM71 146.8v20.9l-24.2-.1-24.3-.1-.2-20.8L22 126h49v20.8zm102.8 22.4-.3 43.3h-49.7l-49.8.1V126h100l-.2 43.2zm52-22.4-.1 20.8-24.3.1H177V126h48.8v20.8zM71 191.8v20.8l-15.2-.1c-8.4-.1-16.9-.5-18.8-.9-4.7-1.2-9.3-4.3-12.1-8.5-2.2-3.2-2.4-4.6-2.7-17.8l-.3-14.3H71v20.8zm154.8-7.6c.1 17.1-1.6 21.1-10.9 25.9-4 2.1-5.7 2.3-20.9 2.3l-16.5.1-.3-20.8-.2-20.7h48.8v13.2z"/></svg>