<svg aria-hidden="true" style="width:0;height:0;position:absolute;overflow:hidden" xmlns="http://www.w3.org/2000/svg"><defs><symbol id="close" viewBox="0 0 32 32"><path stroke="#000" stroke-width="2.133" d="m8.533 8.533 14.933 14.933M8.533 23.467 23.466 8.534"/></symbol><symbol id="love" viewBox="0 0 34 32"><path fill="#ff6b08" style="fill:var(--color1,#ff6b08)" d="m17.231 31.705-2.412-2.412C5.859 21.367.001 16.025.001 9.478.001 4.136 4.136.001 9.478.001c2.929 0 5.858 1.378 7.754 3.618 1.895-2.24 4.825-3.618 7.754-3.618 5.342 0 9.477 4.135 9.477 9.477 0 6.548-5.858 11.889-14.818 19.815l-2.412 2.412z"/></symbol><symbol id="search" viewBox="0 0 32 32"><path fill="none" stroke="#fff" style="stroke:var(--color2,#fff)" stroke-linejoin="round" stroke-linecap="round" stroke-width="2.667" d="M14.667 25.333c5.891 0 10.667-4.776 10.667-10.667S20.558 3.999 14.667 3.999 4 8.775 4 14.666s4.776 10.667 10.667 10.667zM28 28.001l-5.8-5.8"/></symbol><symbol id="logo" viewBox="0 0 32 32"><path fill="none" stroke="#fff" style="stroke:var(--color2,#fff)" stroke-linejoin="round" stroke-linecap="round" stroke-width="2.667" d="M26.427 2.667H5.574a2.907 2.907 0 0 0-2.907 2.907v20.853a2.907 2.907 0 0 0 2.907 2.907h20.853a2.907 2.907 0 0 0 2.907-2.907V5.574a2.907 2.907 0 0 0-2.907-2.907zm-17.094 0v26.667M22.667 2.667v26.667M2.667 16h26.667M2.667 9.333h6.667M2.667 22.667h6.667m13.333 0h6.667M22.667 9.333h6.667"/></symbol><symbol id="moon" viewBox="0 0 32 32"><path d="M16.13 3.374a1.334 1.334 0 0 1-.055 1.426 8 8 0 0 0 11.126 11.126 1.332 1.332 0 0 1 2.085 1.21C28.709 23.969 22.982 29.333 16 29.333 8.636 29.333 2.667 23.364 2.667 16c0-6.981 5.365-12.708 12.197-13.286a1.332 1.332 0 0 1 1.265.659zm-3.564 2.524C8.36 7.327 5.334 11.311 5.334 16c0 5.891 4.776 10.667 10.667 10.667 4.689 0 8.673-3.027 10.102-7.232a10.647 10.647 0 0 1-3.435.566c-5.891 0-10.667-4.776-10.667-10.667 0-1.201.199-2.357.566-3.435z"/></symbol><symbol id="sunny" viewBox="0 0 32 32"><path d="M32 16.565v-1.129h-6.999a8.98 8.98 0 0 0-2.239-5.399l4.95-4.95-.798-.798-4.95 4.95A8.971 8.971 0 0 0 16.564 7V.001h-1.129v6.998a8.98 8.98 0 0 0-5.399 2.239l-4.95-4.95-.798.798 4.95 4.951a8.97 8.97 0 0 0-2.239 5.399H0v1.128h6.998a8.983 8.983 0 0 0 2.239 5.399l-4.95 4.951.798.798 4.95-4.951A8.97 8.97 0 0 0 15.434 25v6.999h1.129v-6.998a8.977 8.977 0 0 0 5.399-2.239l4.951 4.95.798-.798-4.951-4.95a8.977 8.977 0 0 0 2.239-5.399h7zm-16 7.337c-4.357 0-7.901-3.545-7.901-7.901C8.099 11.644 11.643 8.1 16 8.1s7.901 3.544 7.901 7.901c0 4.356-3.544 7.901-7.901 7.901z"/></symbol><symbol id="icon-go-top" viewBox="0 0 40 40"><path d="M0 20C0 8.954 8.954 0 20 0s20 8.954 20 20-8.954 20-20 20S0 31.046 0 20zm20 16c8.837 0 16-7.163 16-16S28.837 4 20 4 4 11.163 4 20s7.163 16 16 16zm1.4-21.08L28.5 22l-2.82 2.82L20 19.2l-5.66 5.6-2.82-2.8L20 13.52l1.4 1.4z"/></symbol></defs></svg>