<?xml version="1.0" standalone="no"?>
<!DOCTYPE svg PUBLIC "-//W3C//DTD SVG 20010904//EN"
 "http://www.w3.org/TR/2001/REC-SVG-20010904/DTD/svg10.dtd">
<svg version="1.0" xmlns="http://www.w3.org/2000/svg"
 width="248.000000pt" height="248.000000pt" viewBox="0 0 248.000000 248.000000"
 preserveAspectRatio="xMidYMid meet">
<metadata>
Created by potrace 1.14, written by Peter Selinger 2001-2017
</metadata>
<g transform="translate(0.000000,248.000000) scale(0.100000,-0.100000)"
fill="#000000" stroke="none">
<path d="M373 2140 c-52 -12 -122 -59 -151 -102 l-27 -42 -2 -750 c-3 -746 -3
-752 18 -791 34 -64 86 -105 159 -123 19 -5 420 -8 890 -8 713 2 860 4 885 16
54 25 103 69 124 112 20 41 21 53 21 771 0 536 -3 739 -12 769 -19 64 -82 121
-163 146 -35 10 -1693 12 -1742 2z m335 -232 l2 -208 -67 -1 c-79 0 -392 0
-411 0 -10 1 -12 33 -10 144 3 134 5 146 28 180 25 36 80 73 127 86 14 4 93 6
177 6 l151 0 3 -207z m1030 -225 l2 -433 -500 0 -500 0 0 433 0 433 498 -1
497 0 3 -432z m402 413 c45 -22 72 -44 96 -81 16 -25 19 -50 21 -172 l2 -143
-42 -1 c-46 0 -375 0 -419 1 l-28 0 0 203 c0 112 2 206 6 209 3 3 78 5 167 3
129 -1 169 -5 197 -19z m-1430 -637 l0 -209 -244 0 -245 0 1 202 c0 112 2 206
4 209 2 4 112 7 244 7 l240 0 0 -209z m1548 -1 l3 -208 -246 0 -245 0 0 209 0
208 243 -1 242 -1 3 -207z m-1548 -446 l0 -209 -242 1 -243 1 -2 208 -3 207
245 0 245 0 0 -208z m1028 -224 l-3 -433 -497 0 -498 -1 0 433 0 433 500 0
500 0 -2 -432z m520 224 l-1 -208 -243 -1 -244 0 0 209 0 208 244 0 244 0 0
-208z m-1548 -450 l0 -208 -152 1 c-84 1 -169 5 -188 9 -47 12 -93 43 -121 85
-22 32 -24 46 -27 178 l-3 143 246 0 245 0 0 -208z m1548 76 c1 -171 -16 -211
-109 -259 -40 -21 -57 -23 -209 -23 l-165 -1 -3 208 -2 207 244 0 244 0 0
-132z"/>
</g>
</svg>
