<svg aria-hidden="true" style="position:absolute;width:0;height:0;overflow:hidden" xmlns="http://www.w3.org/2000/svg">
  <defs>
    <symbol id="close" viewBox="0 0 32 32">
<path stroke="#000000"  stroke-linejoin="miter" stroke-linecap="butt" stroke-miterlimit="4" stroke-width="2.1333" d="M8.533 8.533l14.933 14.933"></path>
<path  stroke="#000000" stroke-linejoin="miter" stroke-linecap="butt" stroke-miterlimit="4" stroke-width="2.1333" d="M8.533 23.467l14.933-14.933"></path>
</symbol>

    <symbol id="love" viewBox="0 0 34 32">
      <path fill="#ff6b08" style="fill:var(--color1, #ff6b08)" d="m17.231 31.705-2.412-2.412C5.859 21.367.001 16.025.001 9.478.001 4.136 4.136.001 9.478.001c2.929 0 5.858 1.378 7.754 3.618 1.895-2.24 4.825-3.618 7.754-3.618 5.342 0 9.477 4.135 9.477 9.477 0 6.548-5.858 11.889-14.818 19.815l-2.412 2.412z"/>
    </symbol>
    <symbol id="search" viewBox="0 0 32 32">
      <path fill="none" stroke="#fff" style="stroke:var(--color2, #fff)" stroke-linejoin="round" stroke-linecap="round" stroke-width="2.667" d="M14.667 25.333c5.891 0 10.667-4.776 10.667-10.667S20.558 3.999 14.667 3.999 4 8.775 4 14.666s4.776 10.667 10.667 10.667zM28 28.001l-5.8-5.8"/>
    </symbol>
    <symbol id="logo" viewBox="0 0 32 32">
      <path fill="none" stroke="#fff" style="stroke:var(--color2, #fff)" stroke-linejoin="round" stroke-linecap="round" stroke-width="2.667" d="M26.427 2.667H5.574a2.907 2.907 0 0 0-2.907 2.907v20.853a2.907 2.907 0 0 0 2.907 2.907h20.853a2.907 2.907 0 0 0 2.907-2.907V5.574a2.907 2.907 0 0 0-2.907-2.907zM9.333 2.667v26.667M22.667 2.667v26.667M2.667 16h26.667M2.667 9.333h6.667M2.667 22.667h6.667M22.667 22.667h6.667M22.667 9.333h6.667"/>
    </symbol>

    <symbol id="moon" viewBox="0 0 32 32">
<path d="M16.13 3.374c0.259 0.446 0.237 1.001-0.055 1.426-0.888 1.288-1.408 2.848-1.408 4.534 0 4.418 3.582 8 8 8 1.685 0 3.245-0.52 4.534-1.408 0.425-0.293 0.98-0.314 1.426-0.055s0.703 0.752 0.659 1.265c-0.577 6.833-6.304 12.197-13.286 12.197-7.364 0-13.333-5.969-13.333-13.333 0-6.981 5.365-12.708 12.197-13.286 0.514-0.043 1.007 0.213 1.265 0.659zM12.566 5.898c-4.206 1.429-7.232 5.413-7.232 10.102 0 5.891 4.776 10.667 10.667 10.667 4.689 0 8.673-3.027 10.102-7.232-1.079 0.367-2.234 0.566-3.435 0.566-5.891 0-10.667-4.776-10.667-10.667 0-1.201 0.199-2.357 0.566-3.435z"></path>
</symbol>
<symbol id="sunny" viewBox="0 0 32 32">
<path d="M32 16.565v-1.129h-6.999c-0.129-2.065-0.95-3.939-2.239-5.399l4.95-4.95-0.798-0.798-4.95 4.95c-1.46-1.29-3.335-2.111-5.4-2.239v-6.999h-1.129v6.998c-2.065 0.129-3.939 0.95-5.399 2.239l-4.95-4.95-0.798 0.798 4.95 4.951c-1.29 1.46-2.111 3.335-2.239 5.399h-6.999v1.128h6.998c0.129 2.064 0.95 3.939 2.239 5.399l-4.95 4.951 0.798 0.798 4.95-4.951c1.46 1.29 3.335 2.111 5.399 2.239v6.999h1.129v-6.998c2.064-0.128 3.939-0.95 5.399-2.239l4.951 4.95 0.798-0.798-4.951-4.95c1.289-1.46 2.111-3.335 2.239-5.399h7zM16 23.902c-4.357 0-7.901-3.545-7.901-7.901 0-4.357 3.544-7.901 7.901-7.901s7.901 3.544 7.901 7.901c0 4.356-3.544 7.901-7.901 7.901z"></path>
</symbol>
<symbol id="icon-go-top" viewBox="0 0 40 40">
           <path d="M0 20c0-11.046 8.954-20 20-20s20 8.954 20 20v0c0 11.046-8.954 20-20 20s-20-8.954-20-20v0zM20 36c8.837 0 16-7.163 16-16s-7.163-16-16-16v0c-8.837 0-16 7.163-16 16s7.163 16 16 16v0zM21.4 14.92l7.1 7.080-2.82 2.82-5.68-5.62-5.66 5.6-2.82-2.8 8.48-8.48 1.4 1.4z"></path>
        </symbol>
  </defs>
</svg>

